<svg width="800" height="600" xmlns="http://www.w3.org/2000/svg">
 <g>
  <g stroke="null">
   <rect stroke="null" x="144" y="45.17999" ry="115.61" rx="115.61" height="188.64001" width="191"/>
   <path stroke="null" d="m220.46342,118.29817l24.1324,0l0,12.27396l0.35066,0c3.36115,-5.98152 11.57937,-12.27396 23.83396,-12.27396c25.48283,0 30.19441,15.73481 30.19441,36.20375l0,43.2772l-25.16574,0l-0.00373,-38.54306c0,-8.81312 -0.18279,-20.15432 -13.08648,-20.15432c-13.10141,0 -15.11213,9.59042 -15.11213,19.51397l0,39.18341l-25.14336,0l0,-79.48095zm-14.26158,-24.09265c0,7.16598 -5.8643,12.98464 -13.08648,12.98464c-7.22592,0 -13.09021,-5.81866 -13.09021,-12.98464c0,-7.16968 5.8643,-12.98464 13.09021,-12.98464c7.22219,0 13.08648,5.81496 13.08648,12.98464zm-26.1767,24.09265l26.1767,0l0,79.48095l-26.1767,0l0,-79.48095z" fill="#fff"/>
  </g>
 </g>
</svg>